<svg xmlns="http://www.w3.org/2000/svg" viewBox="0 0 1024 1536"><path fill="#0458fb" fill-rule="evenodd" d="M420 484.136c-36.453 33.084-90.736 81.736-139 124.58l-40.5 35.951-.5-62.438-.5-62.438-24.25 21.753L191 563.296V743h50v-30.523l34.25-29.985c71.335-62.451 117.152-102.749 143.508-126.219C433.75 542.923 446.245 532 446.524 532c.436 0 22.957 19.506 66.976 58.012 14.332 12.537 58.157 50.504 86 74.506 12.1 10.43 32.376 27.968 45.057 38.973 12.681 11.005 28.394 24.621 34.918 30.259l11.86 10.25h82.789l-14.313-12.284c-20.208-17.343-53.042-45.821-106.311-92.209-25.3-22.031-62.875-54.715-83.5-72.63-20.625-17.915-56.616-49.292-79.979-69.725-23.364-20.434-42.714-37.133-43-37.11-.287.023-12.446 10.866-27.021 24.094M141.75 614.582 118 636.054V743h48v-75c0-41.25-.113-74.975-.25-74.945-.137.031-10.937 9.718-24 21.527M454 649v21h36v-42h-36v21m-49 .5V670h36v-41h-36v20.5m0 54V725h36v-43h-36v21.5m49 0V725h36v-43h-36v21.5m-336 139V922h30V763h-30v79.5m97.165-74.25c-1.137 2.888-12.932 33.375-26.21 67.75s-26.125 67.601-28.549 73.835c-2.423 6.235-4.406 11.522-4.406 11.75 0 .228 7.321.415 16.269.415h16.268l4.849-13 4.848-13H232v-29h-10.107c-7.678 0-9.99-.3-9.621-1.25 3.395-8.728 21.202-52.595 23-56.657 1.5-3.388 2.616-4.882 2.99-4 .328.774 6.013 14.907 12.633 31.407l12.038 30-9.467.286-9.466.286V896l15.75.008 15.75.008 5.042 12.742 5.043 12.742 17.823.274c16.707.256 17.783.162 17.171-1.5-.359-.976-14.668-36.761-31.797-79.524L257.639 763h-40.407l-2.067 5.25m660.15 3.83c-13.107 3.883-14.483 23.08-2.115 29.515 6.176 3.213 15.934.834 20.001-4.877 2.871-4.033 3.579-12.309 1.41-16.503-3.419-6.613-12.092-10.269-19.296-8.135m-530.074 1.915c-5.309 3.236-7.413 7.538-6.981 14.268.613 9.558 6.398 14.963 15.933 14.889 8.702-.068 14.81-6.484 14.803-15.55-.007-9.397-6.165-15.595-15.496-15.595-3.229 0-6.154.704-8.259 1.988m87.029 37.059c-6.095 1.203-12.319 4.173-16.571 7.905L412 822.207V813h-28v103h27.882l.309-34.75c.29-32.642.43-34.956 2.309-38.145 3.3-5.603 6.84-7.609 13.36-7.574 9.088.05 15.254 4.732 17.183 13.046.5 2.158.92 18.211.933 35.673L446 916h26.875l.312-32.25c.301-31.03.396-32.406 2.519-36.374 2.825-5.281 7.403-9.118 11.879-9.958 8.658-1.624 15.347 2.285 17.321 10.121.679 2.698 1.094 16.504 1.094 36.404V916h27.107l-.329-39.25c-.384-45.707-.439-46.029-9.546-55.866-6.015-6.497-12.368-9.511-22.217-10.54-10.552-1.103-22.82 3.377-29.503 10.774l-3.381 3.743-2.599-3.408c-3.361-4.406-10.272-8.418-17.385-10.093-6.275-1.476-9.62-1.541-15.877-.306m160.23-.438c-22.652 3.168-41.947 20.21-46.96 41.477-6.717 28.496 9.101 54.958 37.96 63.504 8.635 2.558 22.066 2.401 31.042-.361 23.66-7.281 38.697-29.238 37.142-54.236-1.431-23.014-16.337-41.875-38.322-48.491-5.183-1.56-16.135-2.554-20.862-1.893m204.349.458c-15.081 2.214-29.492 11.929-37.196 25.075-3.533 6.029-6.657 18.627-6.636 26.761.078 29.331 18.317 50.15 47.477 54.193 15.701 2.177 36.322-4.128 45.978-14.058l3.972-4.084-7.552-7.553-7.552-7.552-5.92 3.589c-14.665 8.891-29.311 8.684-39.816-.562-4.43-3.9-8.604-10.25-8.604-13.093-.001-1.036 7.283-1.224 37-.954l37 .336.119-3.336c.757-21.148-3.476-34.372-14.534-45.408-6.882-6.867-14.381-10.853-24.422-12.981-7.318-1.551-10.83-1.619-19.314-.373m138.327-.004c-5.595 1.101-13.859 4.919-17.722 8.187-8.292 7.016-11.607 21.067-7.521 31.886 3.09 8.184 9.264 13.495 24.244 20.855 17.228 8.465 20.975 13.226 15.458 19.64-2.051 2.385-3.267 2.807-9.149 3.182-8.463.539-16.291-1.133-23.754-5.073-3.172-1.674-5.926-2.865-6.118-2.646-.193.22-1.703 4.779-3.355 10.132-3.34 10.819-3.548 10.132 4.241 14.037 20.985 10.522 45.151 7.81 58.028-6.512 5.818-6.472 7.847-12.796 7.259-22.631-.9-15.068-7.157-21.973-28.171-31.092-9.595-4.164-14.616-8.544-14.616-12.748 0-8.636 13.886-9.446 29.169-1.701l4.755 2.409.978-3.747c2.781-10.665 4.098-16.135 4.098-17.019 0-1.361-8.565-4.914-16.168-6.707-6.884-1.623-14.861-1.789-21.656-.452M340 864.5V916h28V813h-28v51.5m310.424-45.25c1.323 3.438 9.452 23.35 18.065 44.25 8.612 20.9 16.924 41.15 18.471 45l2.813 7 12.451.279 12.45.278 1.522-3.778c.838-2.079 9.529-23.129 19.313-46.779 9.785-23.65 18.622-45.138 19.637-47.75l1.846-4.75h-28.656l-12.828 33.537-12.828 33.538-6.375-16.788c-3.506-9.233-9.321-24.325-12.922-33.537L676.836 813H648.017l2.407 6.25M867 864.5V916h28V813h-28v51.5m-68-31.328c-7.581 1.357-16.385 9.252-18.489 16.578l-.646 2.25h24.068c18.599 0 24.062-.284 24.045-1.25-.05-2.868-3.909-9.482-7.235-12.403-5.506-4.834-13.297-6.688-21.743-5.175m-212.5 6.186c-10.648 4.981-17.389 16.425-16.105 27.343.845 7.189 2.615 11.198 7.174 16.244 7.98 8.832 17.274 11.696 27.916 8.602 7.995-2.324 16.615-10.778 18.926-18.56 3.029-10.201 1.263-18.668-5.497-26.348-8.299-9.428-21.489-12.391-32.414-7.281"/></svg>